<svg version="1.1" xmlns="http://www.w3.org/2000/svg" xmlns:xlink="http://www.w3.org/1999/xlink" width="48" height="48"><defs><linearGradient x1="8.44322" y1="12.26012" x2="62.83825" y2="59.02134" gradientUnits="userSpaceOnUse" id="color-1"><stop offset="0" stop-color="#000000" stop-opacity="0.15"></stop><stop offset="1" stop-color="#000000" stop-opacity="0"></stop></linearGradient><filter id="dropshadow-base"><feColorMatrix type="matrix" values="0 0 0 0 0  0 0 0 0 0  0 0 0 0 0  0 0 0 .8 0"></feColorMatrix> <feOffset dx="0" dy="1"></feOffset> <feGaussianBlur stdDeviation="1"></feGaussianBlur> <feComposite in="SourceGraphic"></feComposite></filter><filter id="dropshadow-banner" x="-10%" y="-10%" width="120%" height="130%"><feColorMatrix type="matrix" values="0 0 0 0 0  0 0 0 0 0  0 0 0 0 0  0 0 0 .4 0"></feColorMatrix> <feOffset dx="0" dy="1"></feOffset> <feGaussianBlur stdDeviation="0.5"></feGaussianBlur> <feComposite in="SourceGraphic"></feComposite></filter></defs><g fill="none" fill-rule="nonzero" stroke="none" stroke-width="none" stroke-linecap="butt" stroke-linejoin="miter" stroke-miterlimit="10" stroke-dasharray="" stroke-dashoffset="0" font-family="none" font-weight="none" font-size="none" text-anchor="none" style="mix-blend-mode: normal"><path d="M7,43c-1.10457,0 -2,-0.89543 -2,-2v-34c0,-1.10457 0.89543,-2 2,-2h34c1.10457,0 2,0.89543 2,2v34c0,1.10457 -0.89543,2 -2,2z" id="base 1 5 1 1" fill="#e59e33" stroke-width="1"></path><path d="M8.44322,12.26012h31.11356l3.44322,3.44322v25.29666c0,1.10457 -0.89543,2 -2,2h-25.29666l-7.26012,-7.26012z" fill="url(#color-1)" stroke-width="1"></path><path d="M8.44322,24v11.73988h15.55678h15.55678v-11.73988v-11.73988h-15.55678h-15.55678zM17.03704,19.75514c0.16193,0.23133 0.53205,0.92531 0.82121,1.53833c0.54362,1.1682 0.96001,1.64243 1.80436,2.07038l0.46266,0.23133l-0.11566,-0.30073c-0.0694,-0.1735 -0.32386,-0.60145 -0.57832,-0.96001c-0.25446,-0.35856 -0.46266,-0.70555 -0.46266,-0.75181c0,-0.05783 0.1735,-0.0694 0.38169,-0.02313c0.87904,0.1735 3.33112,2.19761 3.78221,3.12292c0.33543,0.69398 0.49735,1.81592 0.40482,2.77593c-0.0694,0.63615 -0.1041,0.75181 -0.19663,0.57832c-0.40482,-0.76338 -1.60773,-1.68869 -3.22702,-2.48677c-1.50363,-0.74025 -1.81592,-0.97158 -2.34798,-1.78122c-0.48579,-0.71712 -0.80965,-1.58459 -0.99471,-2.63713c-0.08096,-0.38169 -0.23133,-0.90218 -0.35856,-1.15664c-0.1735,-0.33543 -0.19663,-0.48579 -0.1041,-0.60145c0.18506,-0.21976 0.39326,-0.11566 0.72868,0.38169zM31.96924,19.78984c-0.09253,0.19663 -0.27759,0.82121 -0.40482,1.4111c-0.48579,2.27858 -1.29543,3.34268 -3.23859,4.30269c-1.65399,0.79808 -2.90316,1.75809 -3.31955,2.5446c-0.09253,0.18506 -0.12723,0.1041 -0.19663,-0.45109c-0.1041,-0.79808 -0.01157,-1.75809 0.25446,-2.55617c0.1388,-0.45109 0.38169,-0.77495 1.12194,-1.50363c1.01784,-1.00628 2.24388,-1.86219 2.8222,-1.97785c0.20819,-0.04627 0.37012,-0.0347 0.37012,0.01157c0,0.04627 -0.1735,0.33543 -0.39326,0.63615c-0.39326,0.54362 -0.76338,1.19134 -0.76338,1.33013c0,0.0347 0.26603,-0.0694 0.58989,-0.25446c0.76338,-0.40482 1.28387,-1.01784 1.67713,-1.97785c0.37012,-0.87904 0.75181,-1.53833 1.09881,-1.88532c0.18506,-0.18506 0.26603,-0.20819 0.39326,-0.1041c0.1388,0.11566 0.1388,0.18506 -0.01157,0.47422z" fill="none" stroke-width="0"></path><path d="M8.44322,12.26012h31.11356v23.47975h-31.11356zM16.30836,19.37345c-0.09253,0.11566 -0.0694,0.26603 0.1041,0.60145c0.12723,0.25446 0.27759,0.77495 0.35856,1.15664c0.18506,1.05254 0.50892,1.92002 0.99471,2.63713c0.53205,0.80965 0.84435,1.04097 2.34798,1.78122c1.61929,0.79808 2.8222,1.72339 3.22702,2.48677c0.09253,0.1735 0.12723,0.05783 0.19663,-0.57832c0.09253,-0.96001 -0.0694,-2.08195 -0.40482,-2.77593c-0.45109,-0.92531 -2.90316,-2.94943 -3.78221,-3.12292c-0.20819,-0.04627 -0.38169,-0.0347 -0.38169,0.02313c0,0.04627 0.20819,0.39326 0.46266,0.75181c0.25446,0.35856 0.50892,0.78651 0.57832,0.96001l0.11566,0.30073l-0.46266,-0.23133c-0.84435,-0.42796 -1.26074,-0.90218 -1.80436,-2.07038c-0.28916,-0.61302 -0.65928,-1.307 -0.82121,-1.53833c-0.33543,-0.49735 -0.54362,-0.60145 -0.72868,-0.38169zM31.9808,19.31562c-0.12723,-0.1041 -0.20819,-0.08096 -0.39326,0.1041c-0.34699,0.34699 -0.72868,1.00628 -1.09881,1.88532c-0.39326,0.96001 -0.91374,1.57303 -1.67713,1.97785c-0.32386,0.18506 -0.58989,0.28916 -0.58989,0.25446c0,-0.1388 0.37012,-0.78651 0.76338,-1.33013c0.21976,-0.30073 0.39326,-0.58989 0.39326,-0.63615c0,-0.04627 -0.16193,-0.05783 -0.37012,-0.01157c-0.57832,0.11566 -1.80436,0.97158 -2.8222,1.97785c-0.74025,0.72868 -0.98314,1.05254 -1.12194,1.50363c-0.26603,0.79808 -0.35856,1.75809 -0.25446,2.55617c0.0694,0.55519 0.1041,0.63615 0.19663,0.45109c0.41639,-0.78651 1.66556,-1.74652 3.31955,-2.5446c1.94315,-0.96001 2.7528,-2.02412 3.23859,-4.30269c0.12723,-0.58989 0.31229,-1.21447 0.40482,-1.4111c0.15036,-0.28916 0.15036,-0.35856 0.01157,-0.47422z" fill="#ffffff" stroke-width="0"></path><path d="M2,24c0,-12.15026 9.84974,-22 22,-22c12.15026,0 22,9.84974 22,22c0,12.15026 -9.84974,22 -22,22c-12.15026,0 -22,-9.84974 -22,-22z" id="base 1 1 1" fill="none" stroke-width="1"></path><g fill="#000000" stroke-width="1" font-family="Roboto, sans-serif" font-weight="400" font-size="14" text-anchor="start"><g></g></g><g fill="#000000" stroke-width="1" font-family="Roboto, sans-serif" font-weight="400" font-size="14" text-anchor="start"><g></g></g><g fill="#000000" stroke-width="1" font-family="Roboto, sans-serif" font-weight="400" font-size="14" text-anchor="start"><g></g></g><g fill="#000000" stroke-width="1" font-family="Roboto, sans-serif" font-weight="400" font-size="14" text-anchor="start"><g></g></g><g fill="#000000" stroke-width="1" font-family="Roboto, sans-serif" font-weight="400" font-size="14" text-anchor="start"><g></g></g><rect x="2" y="2" width="44" height="22" fill="none" stroke-width="1"></rect><path d="M2,24v-22h44v22z" fill="none" stroke-width="1"></path><path d="M2,24v-22h44v22z" fill="none" stroke-width="1"></path><path d="M2,24v-22h44v22z" fill="none" stroke-width="1"></path><path d="M2,24v-22h44v22z" fill="none" stroke-width="1"></path></g></svg>